# xmcd
#
# Track frame offsets:
#   182
#   11312
#   22142
#   37947
#   52627
#   68360
#   81450
#   94777
#   107587
#   125010
#
# Disc length: 1885 seconds
#
# Revision: 4
# Processed by: cddbd v1.5PL3 Copyright (c) Steve Scherf et al.
# Submitted via: Media_Universe 3.0
#
DISCID=6f075b0a
DTITLE=Alan Jackson - A Lot About Livin' (And A Little 'Bout Love)
DYEAR=1992
DGENRE=Country
TTITLE0=Chattahoochee
TTITLE1=She's Got The Rhythm (And I Got The Blues)
TTITLE2=Tonight I Climbed The Wall
TTITLE3=I Don't Need The Booze (To Get A Buzz On)
TTITLE4=(Who Says) You Can't Have It All
TTITLE5=Up To My Ears In Tears
TTITLE6=Tropical Depression
TTITLE7=She Likes It Too
TTITLE8=If It Ain't One Thing (It's You)
TTITLE9=Mercury Blues
EXTD=YEAR: 1992
EXTT0=
EXTT1=
EXTT2=
EXTT3=
EXTT4=
EXTT5=
EXTT6=
EXTT7=
EXTT8=
EXTT9=
PLAYORDER=
